<?xml version="1.0" encoding="UTF-8" standalone="no"?>
<svg width="300px" height="300px" viewBox="0 0 300 300" version="1.1" xmlns="http://www.w3.org/2000/svg" xmlns:xlink="http://www.w3.org/1999/xlink" xmlns:sketch="http://www.bohemiancoding.com/sketch/ns">
    <!-- Generator: Sketch 3.2 (9964) - http://www.bohemiancoding.com/sketch -->
    <title>cog-footer</title>
    <desc>Created with Sketch.</desc>
    <defs></defs>
    <g id="UI-Elements" stroke="none" stroke-width="1" fill="none" fill-rule="evenodd" sketch:type="MSPage">
        <g id="cog-footer" sketch:type="MSArtboardGroup" fill="#BCC2CC">
            <path d="M273.696176,167.361041 L273.987402,134.748521 L287.765829,133.053838 L300,121.489746 L295.005596,102.1547 L278.697681,97.975923 L265.829049,103.178397 L249.775938,74.7976274 L260.863509,66.4417608 L265.683069,50.3086092 L251.688066,36.0661765 L235.473563,40.602372 L226.927196,51.5414354 L198.830569,34.9966325 L204.258436,22.2186136 L200.365093,5.84095292 L181.120883,0.508021817 L169.345157,12.5415621 L167.408767,26.2867974 L134.801253,26.0096714 L133.112537,12.2325606 L121.551874,0 L102.219412,5.00436738 L98.0323506,21.3127109 L103.230794,34.1803942 L74.8463565,50.246123 L66.4921925,39.1632308 L50.3633222,34.3513967 L36.1166056,48.3531316 L40.6456423,64.5653142 L51.5815525,73.1081467 L35.0245108,101.211592 L22.2487389,95.7902849 L5.87314967,99.6903059 L0.529900922,118.936773 L12.5595283,130.709697 L26.304402,132.638832 L26.0129866,165.249807 L12.2376495,166.944111 L2.84217094e-14,178.509675 L4.99440384,197.844722 L21.3007108,202.023174 L34.1715294,196.821476 L50.2224537,225.201469 L39.1353982,233.557273 L34.3186747,249.687985 L48.3148972,263.931835 L64.5269518,259.396986 L73.0746742,248.456188 L101.169946,265.002726 L95.7404706,277.78042 L99.6347808,294.157439 L118.879758,299.492366 L130.654779,287.457345 L132.591296,273.713139 L165.197265,273.990455 L166.885918,287.767051 L178.447674,300 L197.782322,294.996409 L201.967586,278.686196 L196.769269,265.819542 L225.157248,249.752855 L233.506715,260.835803 L249.636615,265.64751 L263.883783,251.645197 L259.354873,235.434044 L248.420318,226.889477 L264.973944,198.788019 L277.750042,204.207719 L294.128269,200.307896 L299.468491,181.062324 L287.438864,169.2894 L273.696176,167.361041 L273.696176,167.361041 Z" id="Imported-Layers-3" sketch:type="MSShapeGroup"></path>
        </g>
    </g>
</svg>
