<?xml version="1.0" encoding="UTF-8" standalone="no"?>
<svg width="120px" height="120px" viewBox="0 0 120 120" version="1.1" xmlns="http://www.w3.org/2000/svg" xmlns:xlink="http://www.w3.org/1999/xlink" xmlns:sketch="http://www.bohemiancoding.com/sketch/ns">
    <!-- Generator: Sketch 3.2 (9964) - http://www.bohemiancoding.com/sketch -->
    <title>kforce-logo</title>
    <desc>Created with Sketch.</desc>
    <defs></defs>
    <g id="UI-Elements" stroke="none" stroke-width="1" fill="none" fill-rule="evenodd" sketch:type="MSPage">
        <g id="kforce-logo" sketch:type="MSArtboardGroup" fill="#FFFFFF">
            <path d="M107.396735,72.5270628 L109.071224,59.8294737 L114.532041,59.8294737 L119.862245,55.9085908 L118.837551,48.1328353 L112.670204,45.7222411 L107.396735,47.133107 L102.487143,35.3013922 L107.216122,32.5760272 L109.87,26.5187776 L105.087347,20.2965025 L98.5393878,21.2872666 L94.6789796,25.1413243 L84.5006122,17.3456027 L87.2314286,12.6252632 L86.495102,6.05500849 L79.2365306,3.05378608 L74.0628571,7.17962649 L72.6489796,12.4443463 L59.9308163,10.773107 L59.9308163,5.32217317 L56.002449,0 L48.2146939,1.0237691 L45.7993878,7.17962649 L47.2132653,12.4443463 L35.3618367,17.3456027 L32.6304082,12.6252632 L26.5632653,9.97650255 L20.3306122,14.7510357 L21.3230612,21.2872666 L25.1840816,25.1413243 L17.3744898,35.3015959 L12.6457143,32.5760272 L6.06530612,33.3111036 L3.05795918,40.5567402 L7.19142857,45.7222411 L12.4657143,47.133107 L10.7912245,59.8300849 L5.33163265,59.8300849 L0,63.7513752 L1.02469388,71.5271307 L7.19142857,73.9375212 L12.4657143,72.5270628 L17.3744898,84.3583701 L12.6457143,87.0837351 L9.99306122,93.1401698 L14.7761224,99.363056 L21.3230612,98.3726995 L25.1840816,94.5180306 L35.3618367,102.314363 L32.6304082,107.034499 L33.3671429,113.60455 L40.6259184,116.606587 L45.7993878,112.480136 L47.2132653,107.215823 L59.9308163,108.887063 L59.9308163,114.337793 L63.8595918,119.66017 L71.6481633,118.636808 L74.0628571,112.480136 L72.6489796,107.215823 L84.5018367,102.314363 L87.2314286,107.034499 L93.2989796,109.68326 L99.5318367,104.908523 L98.5393878,98.3726995 L94.6789796,94.5180306 L102.487143,84.3583701 L107.216122,87.0833277 L113.797551,86.348455 L116.803673,79.1030221 L112.670204,73.9375212 L107.396735,72.5270628 L107.396735,72.5270628 Z M93.8336735,60.9765025 L93.6512245,61.4683192 L93.4689796,61.8865874 L93.2859184,62.286927 L93.0671429,62.7233277 L92.7763265,63.2520204 L92.4114286,63.9064177 L91.9369388,64.7619015 L91.4087755,65.5083871 L90.8979592,66.2730051 L90.3877551,67.0736842 L89.8769388,67.8562309 L89.385102,68.6573175 L88.9110204,69.4586078 L88.4181633,70.2588795 L87.9626531,71.0780985 L87.0322449,72.7163328 L86.1220408,74.3724958 L85.2277551,76.0294737 L84.3526531,77.7031579 L83.4597959,79.3780645 L82.5663265,81.0519525 L81.6720408,82.7081154 L80.7608163,84.3475722 L79.8314286,85.9843803 L78.8638776,87.5871647 L78.3720408,88.3876401 L77.862449,89.1695756 L77.3516327,89.9343973 L76.8222449,90.7167402 L76.5677551,90.9718166 L76.3126531,91.1898132 L76.0569388,91.3902886 L75.8208163,91.5540917 L75.565102,91.6997623 L75.2914286,91.8450255 L74.9816327,91.9911036 L74.6542857,92.1359593 L40.0857143,92.1359593 L39.2465306,91.7906282 L38.7546939,91.5724278 L38.5734694,91.463837 L38.427551,91.3719525 L38.2438776,91.2442105 L38.0626531,91.0987436 L35.8928571,87.4042105 L34.0144898,84.1458744 L32.3557143,81.3432937 L30.9518367,78.9227165 L29.7667347,76.8843463 L28.7826531,75.1733786 L27.962449,73.7714771 L27.3244898,72.6431919 L26.812449,71.7516469 L26.4304082,71.0780985 L26.1567347,70.586893 L25.9744898,70.2401358 L25.8646939,70.004618 L25.8110204,69.8587436 L25.7926531,69.7680815 L25.7926531,69.6947368 L26.0846939,69.3306621 L26.4118367,68.9667912 L26.7587755,68.6031239 L27.1044898,68.2567742 L27.4693878,67.9112394 L27.8526531,67.5650934 L28.2532653,67.2558234 L28.6728571,66.9282173 L29.092449,66.6187436 L29.5116327,66.3271986 L29.9677551,66.0364686 L30.4038776,65.7632598 L30.8785714,65.4908659 L31.3338776,65.2355857 L31.8083673,64.9807131 L32.3014286,64.7447878 L32.792449,64.5074363 L33.2671429,64.2890323 L33.7773469,64.0893718 L34.2881633,63.888489 L34.7810204,63.7067572 L35.2908163,63.524618 L35.782449,63.3610187 L36.2934694,63.2151443 L36.8042857,63.0700849 L37.2959184,62.9421392 L37.7883673,62.8150085 L38.2997959,62.7056027 L38.7910204,62.6145331 L39.264898,62.5234635 L39.7573469,62.4511375 L40.232449,62.396129 L45.6646939,62.396129 L46.5397959,62.5234635 L47.397551,62.6689304 L48.2726531,62.8150085 L49.1291837,62.9786078 L49.9671429,63.1424109 L50.8246939,63.3243463 L51.6628571,63.506893 L52.5016327,63.7067572 L53.3212245,63.9064177 L54.1610204,64.1254329 L54.9997959,64.343837 L55.8193878,64.579966 L56.6581633,64.8352462 L57.4795918,65.0899151 L58.3177551,65.3629202 L59.1379592,65.6359253 L59.2838776,66.6548048 L59.3936735,67.1828862 L59.43,67.3287606 L59.4663265,67.4375552 L59.5212245,67.5111036 L59.5938776,67.5650934 L59.5212245,68.3659762 L59.4842857,68.7483871 L59.4479592,69.1485229 L59.4126531,69.5305263 L59.375102,69.9312733 L59.302449,70.7329711 L59.1379592,71.2421053 L58.9734694,71.7333107 L58.8093878,72.2065874 L58.6461224,72.661528 L58.4453061,73.1164686 L58.2628571,73.5536842 L58.0620408,73.9721562 L57.6244898,74.7726316 L57.405102,75.154635 L57.1689796,75.5191171 L56.9138776,75.8827844 L56.6593878,76.2466553 L56.4036735,76.5744652 L56.13,76.9202037 L55.8563265,77.2482173 L55.5642857,77.5572835 L55.254898,77.8671647 L54.9442857,78.1762309 L54.6165306,78.4677759 L54.2879592,78.7770458 L53.9422449,79.0500509 L53.5953061,79.3415959 L53.23,79.6135823 L52.4830612,80.1793548 L51.6812245,80.7066214 L50.8438776,81.2522241 L49.9671429,81.7803056 L48.4185714,82.4173854 L47.2520408,82.8904584 L46.4120408,83.2547368 L45.8655102,83.4908659 L45.5185714,83.636944 L45.3546939,83.746146 L45.3183673,83.7828183 L45.3010204,83.800747 L45.3010204,83.8366044 L45.3183673,83.855348 L59.8312245,83.855348 L60.7426531,83.7096774 L61.5997959,83.5638031 L62.4206122,83.4183362 L63.1859184,83.2359932 L63.9334694,83.0363328 L64.6440816,82.8175212 L64.9904082,82.7081154 L65.3187755,82.5628523 L65.6473469,82.4355178 L65.975102,82.2896435 L66.285102,82.1254329 L66.595102,81.9618336 L66.9044898,81.7803056 L67.1965306,81.5804414 L67.4885714,81.379966 L67.7806122,81.161562 L68.0716327,80.9250255 L68.6187755,80.4148727 L68.892449,80.1245501 L69.1655102,79.8330051 L69.4389796,79.5235314 L69.7126531,79.1953141 L69.9671429,78.8503905 L70.5144898,78.0851613 L70.7516327,77.3759593 L70.9704082,76.8114092 L71.134898,76.3564686 L71.2810204,75.973854 L71.4085714,75.6458404 L71.4991837,75.319253 L71.5916327,74.9547708 L71.6993878,74.5362988 L71.7912245,67.7470289 L71.8091837,66.3640747 L71.8455102,63.6704924 L72.5018367,63.5612903 L73.1765306,63.4516808 L73.8328571,63.342275 L74.507551,63.2336842 L75.1818367,63.1242784 L75.8559184,63.0334126 L76.5314286,62.9235993 L77.2240816,62.8335484 C78.9295918,62.3032258 81.9195918,60.9310696 82.2330612,59.547708 C81.4814286,58.2189474 79.457551,57.6558234 77.862449,57.1177589 L77.1155102,56.9539559 L76.3483673,56.7720204 L75.5836735,56.6080136 L74.8367347,56.444618 L74.0879592,56.2806112 L73.3226531,56.1168081 L72.5757143,55.9528014 L71.8455102,55.7894058 L71.827551,54.4427165 L71.6993878,45.1778608 L71.5355102,44.5955857 L71.3530612,44.0312394 L71.1712245,43.5035654 L70.9895918,42.9942275 L70.7879592,42.5028183 L70.5877551,42.0468591 L70.3695918,41.5925297 L70.1322449,41.1736503 L69.895102,40.773107 L69.64,40.3911036 L69.3663265,40.0272326 L69.0922449,39.699219 L68.8012245,39.3720204 L68.5091837,39.0625467 L68.1991837,38.7712054 L67.8708163,38.4982003 L67.525102,38.2433277 L67.1595918,37.9886587 L66.7946939,37.7702547 L66.4126531,37.5516469 L66.0114286,37.3515789 L65.5918367,37.169236 L65.154898,36.987708 L64.6995918,36.8239049 L64.2434694,36.6601019 L63.7516327,36.5144312 L63.2587755,36.3870968 L62.7293878,36.2416299 L62.2006122,36.1326316 L61.6361224,36.0232258 L61.0710204,35.9136163 L60.487551,35.8048217 L44.8265306,35.8048217 L45.0453061,35.8958913 L45.3183673,36.0048896 L46.2487755,36.3506282 L47.1418367,36.696163 L48.0353061,37.0604414 L48.9104082,37.4426486 L49.7485714,37.8429881 L50.587551,38.28 L51.3897959,38.7349406 L52.1730612,39.2078098 L52.5563265,39.4626825 L52.9385714,39.7177589 L53.3032653,39.9909677 L53.6687755,40.2639728 L54.032449,40.5549066 L54.3793878,40.8460441 L54.7440816,41.1557216 L55.0712245,41.4831239 L55.4183673,41.8105263 L56.075102,42.5028183 L56.4036735,42.866893 L56.7142857,43.2301528 L57.0228571,43.6306961 L57.3138776,44.0312394 L57.6071429,44.4319864 L58.0077551,45.4331409 L58.372449,46.3611545 L58.5173469,46.8162988 L58.682449,47.2526995 L58.8093878,47.7078438 L58.9381633,48.1450594 L59.0467347,48.5995925 L59.1563265,49.0549406 L59.3387755,50.0010866 L59.4126531,50.493107 L59.4842857,51.0022411 L59.5391837,51.5301188 L59.5938776,52.0763328 L59.5212245,52.1490662 L59.4663265,52.2220034 L59.43,52.330798 L59.375102,52.495416 L59.2655102,53.1131409 L59.1016327,54.2603735 L58.2265306,54.4787776 L57.3514286,54.6971817 L56.494898,54.9337182 L55.6185714,55.1337861 L54.7440816,55.3530051 L53.887551,55.5528693 L53.012449,55.752326 L52.1559184,55.9528014 L51.2814286,56.1526655 L50.405102,56.335416 L49.547551,56.5175552 L48.672449,56.6992869 L47.7981633,56.8632937 L46.9218367,57.0273005 L46.0479592,57.1906961 L45.1722449,57.3544992 L44.5893878,57.3363667 L44.0234694,57.3182343 L43.4406122,57.2996944 L42.874898,57.281562 L42.2918367,57.281562 L41.7263265,57.2640407 L40.577551,57.2640407 L39.5569388,57.0816978 L38.5359184,56.8812224 L37.5155102,56.6446859 L36.4942857,56.3716808 L35.9840816,56.2262139 L35.4904082,56.0626146 L34.9808163,55.8986078 L34.4877551,55.7162649 L33.9961224,55.5347368 L33.4853061,55.3342615 L33.0118367,55.1337861 L32.5373469,54.915382 L32.0640816,54.6786418 L31.5895918,54.4427165 L31.1157143,54.205365 L30.6597959,53.9508998 L30.2226531,53.677691 L29.7853061,53.4046859 L29.3471429,53.1131409 L28.9102041,52.8226146 L28.4906122,52.5129372 L28.09,52.1853311 L27.6881633,51.8581324 L27.2869388,51.5121902 L26.9220408,51.1481154 L26.54,50.7842445 L26.1926531,50.4020374 L25.8289796,50.0194228 L25.8646939,49.3102207 L37.5332653,29.4165025 L37.8069388,28.7610866 L38.3897959,28.3057385 L38.7910204,28.014601 L39.1742857,27.7961969 L39.7393878,27.5231919 L74.7997959,27.5231919 L75.1455102,27.6869949 L75.4561224,27.8687267 L75.747551,28.0689983 L76.0383673,28.2694737 L76.5863265,28.7244143 L77.1334694,29.1974873 L78.1361224,30.963056 L79.137551,32.7284211 L80.1597959,34.4937861 L81.1612245,36.259966 L82.1830612,38.0428523 L83.2040816,39.8090323 L84.2067347,41.5743973 L86.2495918,45.1047199 L87.2695918,46.8708998 L88.2912245,48.6362649 L89.2938776,50.4203735 L91.3355102,53.9508998 L92.3565306,55.7350085 L93.3777551,57.499966 L93.4867347,57.8642445 L93.614898,58.2101868 L93.7240816,58.5557216 L93.8336735,58.9010526 L93.924898,59.2476061 L93.9971429,59.5931409 L94.0518367,59.9755518 L94.0697959,60.3575552 L93.8336735,60.9765025 L93.8336735,60.9765025 Z" id="Imported-Layers-2" sketch:type="MSShapeGroup"></path>
        </g>
    </g>
</svg>
