<?xml version="1.0" encoding="UTF-8" standalone="no"?>
<svg width="120px" height="120px" viewBox="0 0 120 120" version="1.1" xmlns="http://www.w3.org/2000/svg" xmlns:xlink="http://www.w3.org/1999/xlink" xmlns:sketch="http://www.bohemiancoding.com/sketch/ns">
    <!-- Generator: Sketch 3.2.2 (9983) - http://www.bohemiancoding.com/sketch -->
    <title>kforce-logo</title>
    <desc>Created with Sketch.</desc>
    <defs></defs>
    <g id="UI-Elements" stroke="none" stroke-width="1" fill="none" fill-rule="evenodd" sketch:type="MSPage">
        <g id="kforce-logo" sketch:type="MSArtboardGroup" fill="#FFFFFF">
            <path d="M107.30376,72.588 L108.9768,59.88 L114.43272,59.88 L119.75856,55.95552 L118.73472,48.17304 L112.57272,45.76032 L107.30376,47.17248 L102.39864,35.33088 L107.12328,32.60328 L109.7748,26.54088 L104.9964,20.31336 L98.454,21.30504 L94.59696,25.16232 L84.42744,17.35992 L87.15576,12.63576 L86.4204,6.06 L79.16784,3.05616 L73.99872,7.1856 L72.58632,12.4548 L59.87928,10.782 L59.87928,5.32656 L55.95408,0 L48.17304,1.0248 L45.75984,7.1856 L47.17248,12.4548 L35.33112,17.35992 L32.60208,12.63576 L26.54016,9.98496 L20.31288,14.76336 L21.30456,21.30504 L25.16208,25.16232 L17.35944,35.33112 L12.63456,32.60328 L6.06,33.33888 L3.05544,40.59072 L7.18512,45.76032 L12.4548,47.17248 L10.78176,59.88 L5.3268,59.88 L0,63.80472 L1.02384,71.58672 L7.18512,73.9992 L12.4548,72.58752 L17.35944,84.42864 L12.63456,87.15648 L9.98424,93.21792 L14.76336,99.44592 L21.30456,98.45496 L25.16208,94.59696 L35.33112,102.39984 L32.60208,107.124 L33.33816,113.69928 L40.59072,116.70384 L45.7596,112.57416 L47.17272,107.3052 L59.87928,108.978 L59.87928,114.4332 L63.80448,119.76 L71.58624,118.73592 L73.99896,112.57416 L72.58608,107.3052 L84.42864,102.39984 L87.15576,107.124 L93.21816,109.7748 L99.44568,104.99616 L98.454,98.45496 L94.59696,94.59696 L102.39864,84.42864 L107.12328,87.15624 L113.69904,86.42064 L116.70264,79.16904 L112.57272,73.9992 L107.30376,72.588 L107.30376,72.588 Z M95.93136,62.92944 L80.54616,89.64384 C79.45656,91.53096 77.4432,92.76 75.26448,92.76 L44.49408,92.76 C42.31512,92.76 40.30176,91.53096 39.2124,89.64384 L27.8592,69.94608 C28.50432,68.9736 31.46544,64.90512 36.83112,63.54864 C46.70424,61.05288 48.07656,61.71024 60.93096,65.17872 C61.42296,67.3644 61.19064,78.84 45.78936,83.64 L61.33176,83.64 C68.50728,83.64 73.518,79.18512 73.518,71.21112 C73.518,65.61528 73.66392,63.64056 73.66392,63.64056 C77.42664,63.64056 84.04248,60.8136 84.04248,59.87976 C84.04248,58.94568 77.42664,56.11848 73.66392,56.11848 C73.66392,56.11848 73.518,54.26448 73.518,48.66888 C73.518,40.69488 68.50728,36.36 61.33176,36.36 L45.78936,36.36 C61.19064,41.16 61.42296,52.52376 60.93096,54.70968 C48.07656,58.17792 46.70424,58.78464 36.83112,56.28864 C31.4652,54.93216 28.50432,50.85024 27.8592,49.87752 L39.2124,30.25128 C40.30176,28.36416 42.31512,27.24 44.49408,27.24 L75.26448,27.24 C77.4432,27.24 79.45656,28.34904 80.54616,30.23616 L95.93136,56.8572 C97.02072,58.74432 97.02072,61.04232 95.93136,62.92944 L95.93136,62.92944 Z" id="Imported-Layers" sketch:type="MSShapeGroup"></path>
        </g>
    </g>
</svg>
