<?xml version="1.0" encoding="UTF-8" standalone="no"?>
<svg width="126px" height="68px" viewBox="0 0 126 68" version="1.1" xmlns="http://www.w3.org/2000/svg" xmlns:xlink="http://www.w3.org/1999/xlink" xmlns:sketch="http://www.bohemiancoding.com/sketch/ns">
    <!-- Generator: Sketch 3.2 (9964) - http://www.bohemiancoding.com/sketch -->
    <title>kristin-logo-footer</title>
    <desc>Created with Sketch.</desc>
    <defs></defs>
    <g id="UI-Elements" stroke="none" stroke-width="1" fill="none" fill-rule="evenodd" sketch:type="MSPage">
        <g id="kristin-logo-footer" sketch:type="MSArtboardGroup" fill="#6D7A90">
            <g id="Imported-Layers" sketch:type="MSLayerGroup">
                <path d="M20.548786,67.5597122 L11.1370272,51.0812086 L5.49154086,57.844518 L5.49154086,67.5597122 L0.408396887,67.5597122 L0.408396887,34.1301295 L5.49154086,34.1301295 L5.49154086,50.9383597 L19.1838677,34.1301295 L25.3951284,34.1301295 L14.5248093,47.2291799 L26.5261868,67.5597122 L20.548786,67.5597122" id="Fill-1" sketch:type="MSShapeGroup"></path>
                <path d="M81.8970584,30.3764317 L66.528,30.3764317 C65.8489728,30.3764317 65.2273074,29.9953381 64.9051984,29.3818705 L59.4489572,19.9504173 L59.6975253,19.6280288 C60.5618755,18.5067626 63.0088249,17.2323741 65.388607,16.6639137 C65.980856,16.5225324 66.6633152,16.4506187 67.4163735,16.4506187 C70.7673852,16.4506187 74.5954319,17.837036 74.7572218,17.8962302 L75.0327549,17.9970072 L75.1254163,18.2748777 C75.1312996,18.292 75.6264747,20.125554 74.4463891,22.2271942 C73.3476887,24.1830504 71.233144,25.6105612 68.1527626,26.4784173 C69.4892451,26.4774388 72.8843813,26.4745036 75.238179,26.4793957 C77.1448482,26.4793957 78.6141946,25.9603453 79.6035642,24.9378993 C81.0729105,23.4198849 81.0155486,21.2918273 81.0150584,21.2703022 C81.0121167,21.1254964 81.0121167,17.6491799 81.0121167,17.6491799 L81.0121167,17.138446 L81.516607,17.0498993 C81.5175875,17.0498993 82.6707082,16.8478561 83.1801012,16.7441439 L83.2310895,16.7358273 C83.8478521,16.6639137 84.9872451,16.0000576 85.9780856,15.2916835 C84.9534163,14.5622734 83.8400078,13.9170072 83.2310895,13.8460719 L83.1810817,13.8377554 C82.6707082,13.7350216 81.5161167,13.5300432 81.5151362,13.5300432 L81.0121167,13.440518 L81.0121167,12.9312518 C81.0121167,12.9312518 81.0121167,9.45738129 81.0145681,9.3218705 C81.0155486,9.29153957 81.061144,7.14146763 79.5947393,5.63470504 C78.6053696,4.6181295 77.138965,4.1025036 75.2367082,4.1025036 C73.9933774,4.10446043 72.4563735,4.10543885 71.0875331,4.10543885 L68.1537432,4.10446043 C71.2498132,4.97671942 73.3692607,6.41401439 74.4630584,8.38454676 C75.6137276,10.4587914 75.1293385,12.2938129 75.1234553,12.310446 L75.0288327,12.5839137 L74.7572218,12.683223 C74.5954319,12.7424173 70.7649339,14.1303022 67.4134319,14.1303022 C66.6613541,14.1303022 65.9798755,14.0588777 65.388607,13.9179856 C63.0073541,13.3495252 60.5604047,12.0741583 59.697035,10.950446 L59.4489572,10.6280576 L64.9174553,1.17948201 C65.3067315,0.52247482 65.833284,0.205956835 66.5314319,0.205956835 L81.8970584,0.205956835 C82.6079533,0.205956835 83.2144202,0.604661871 83.5605525,1.29884892 L91.081821,14.2976115 C91.1362412,14.392518 91.3882412,14.8631367 91.3710817,15.3132086 C91.3882412,15.7207194 91.135751,16.1908489 91.0842724,16.2798849 L83.5419222,29.3143597 C83.2261868,29.9747914 82.6187393,30.3764317 81.8970584,30.3764317 L81.8970584,30.3764317 Z M60.9320311,20.0820144 L65.9730117,28.7957986 C66.0975409,29.0320863 66.3005136,29.1597698 66.528,29.1597698 L81.8970584,29.1597698 C82.1421946,29.1597698 82.3334008,29.0208345 82.465284,28.7468777 L90.0267549,15.6762014 C90.0904903,15.5612374 90.1552062,15.3782734 90.1532451,15.3132086 C90.154716,15.2021583 90.09,15.0196835 90.0223424,14.8988489 L82.486856,1.87415827 C82.2603502,1.42261871 81.9965837,1.42261871 81.8970584,1.42261871 L66.5314319,1.42261871 C66.3098288,1.42261871 66.1544125,1.48132374 65.97007,1.79294964 L60.9320311,10.4979281 C61.7537276,11.2610935 63.6216654,12.2453813 65.6719844,12.7350791 C66.1705914,12.8539568 66.7564669,12.9141295 67.4134319,12.9141295 C70.0005992,12.9141295 73.0128327,11.9865899 74.0031829,11.6563741 C74.0458366,11.1554245 74.0379922,9.99061871 73.2618911,8.74509353 C72.181821,7.01231655 70.050607,5.76728058 66.927572,5.04618705 L66.1298988,4.8617554 L66.5353541,4.15191367 C66.7182257,3.83197122 67.0422957,3.21410072 67.0422957,3.21410072 L67.2134008,2.88730935 L71.0875331,2.88877698 C72.4558833,2.88877698 73.9919066,2.88828777 75.2357276,2.88633094 C77.4880389,2.88633094 79.2520389,3.52964029 80.4801712,4.79913669 C82.304965,6.68454676 82.2368171,9.24604317 82.2333852,9.35415827 C82.2319144,9.45884892 82.2314241,11.4602014 82.2314241,12.4224748 C82.6050117,12.4899856 83.1001868,12.5809784 83.3992529,12.6411511 C84.666607,12.805036 86.5644514,14.1865612 87.3248638,14.7760576 L87.5366615,14.9399424 L87.5758833,15.2373813 C87.591572,15.4325755 87.5190117,15.6243453 87.3753619,15.7618129 L87.3282957,15.8029065 C86.7389883,16.2627626 84.7239689,17.7685468 83.3997432,17.9407482 C83.1001868,18.0009209 82.6050117,18.0914245 82.2314241,18.158446 C82.2314241,19.1216978 82.2319144,21.1254964 82.2333852,21.2385036 C82.2368171,21.3358561 82.304965,23.8973525 80.4801712,25.7827626 C79.2520389,27.0517698 77.4880389,27.6955683 75.2367082,27.6955683 C72.2470272,27.6892086 67.5835564,27.6955683 67.5835564,27.6955683 L67.2134008,27.6960576 L67.0422957,27.368777 C67.0413152,27.3668201 66.7182257,26.7494388 66.5358444,26.4304748 L66.1294086,25.7211223 L66.927572,25.5366906 C70.0501167,24.8151079 72.1808405,23.5710504 73.2609105,21.8382734 C74.0291673,20.6059568 74.0453463,19.4509353 73.9992607,18.9216115 C73.0044981,18.5904173 69.9991284,17.6672806 67.4163735,17.6672806 C66.758428,17.6672806 66.171572,17.7274532 65.6719844,17.8468201 C63.6231362,18.336518 61.7551984,19.3203165 60.9320311,20.0820144 L60.9320311,20.0820144 Z" id="Fill-2" sketch:type="MSShapeGroup"></path>
                <path d="M49.4145525,43.7543309 L54.2162802,43.7543309 L54.2162802,67.5646043 L49.4145525,67.5646043 L49.4145525,43.7543309 Z M49.2738444,33.9887482 L54.3569883,33.9887482 L54.3569883,39.0589065 L49.2738444,39.0589065 L49.2738444,33.9887482 Z" id="Fill-3" sketch:type="MSShapeGroup"></path>
                <path d="M42.5247549,49.3440288 C41.4422335,48.2628777 40.5945525,47.7448058 38.9472374,47.7448058 C36.3610506,47.7448058 34.1955175,49.8097554 34.1955175,53.1006619 L34.1955175,67.5597122 L29.3967315,67.5597122 L29.3967315,43.7543309 L34.1018755,43.7543309 L34.1018755,46.3373525 C35.3265759,44.6486043 37.7715642,43.473036 40.4528638,43.473036 C42.7605759,43.473036 44.5000623,44.0840576 46.148358,45.7277986 L42.5247549,49.3440288" id="Fill-4" sketch:type="MSShapeGroup"></path>
                <path d="M67.3869572,67.8414964 C63.4809572,67.8414964 60.1877977,67.186446 57.3648093,64.4155683 L60.517751,61.270446 C62.4464825,63.2414676 65.0370817,63.7575827 67.3869572,63.7575827 C70.3060389,63.7575827 72.6112996,62.7229065 72.6112996,60.4691223 C72.6112996,58.8752806 71.7150817,57.844518 69.4122724,57.6498129 L65.5999144,57.3254676 C61.1286304,56.9482878 58.5409728,54.9312806 58.5409728,50.7529496 C58.5409728,46.1010647 62.5425759,43.473036 67.5291362,43.473036 C71.1051829,43.473036 74.165463,44.2244604 76.377572,46.1514532 L73.3633774,49.2021583 C71.857751,47.9346187 69.7402646,47.4630216 67.4815798,47.4630216 C64.6120156,47.4630216 63.1519844,48.732518 63.1519844,50.5156835 C63.1519844,51.9260719 63.9065136,53.0057554 66.4480856,53.2381295 L70.2119066,53.5693237 C74.6827004,53.9455252 77.3174241,56.0549928 77.3174241,60.2851799 C77.3174241,65.2628777 73.0824514,67.8414964 67.3869572,67.8414964" id="Fill-5" sketch:type="MSShapeGroup"></path>
                <path d="M88.8275486,67.5597122 C84.3538132,67.5597122 82.2853541,64.3686043 82.2853541,60.9392518 L82.2853541,47.8411799 L79.5540467,47.8411799 L79.5540467,44.1784748 L82.2853541,44.1784748 L82.2853541,36.9465036 L87.0846304,36.9465036 L87.0846304,44.1784748 L91.6941712,44.1784748 L91.6941712,47.8411799 L87.0846304,47.8411799 L87.0846304,60.7073669 C87.0846304,62.4430791 87.9313307,63.4762878 89.7183735,63.4762878 L91.6941712,63.4762878 L91.6941712,67.5597122 L88.8275486,67.5597122" id="Fill-6" sketch:type="MSShapeGroup"></path>
                <path d="M96.6772996,43.7543309 L101.477556,43.7543309 L101.477556,67.5646043 L96.6772996,67.5646043 L96.6772996,43.7543309 Z M96.5356109,33.9887482 L101.616794,33.9887482 L101.616794,39.0589065 L96.5356109,39.0589065 L96.5356109,33.9887482 Z" id="Fill-7" sketch:type="MSShapeGroup"></path>
                <path d="M120.775167,67.5597122 L120.775167,53.051741 C120.775167,49.3440288 118.659152,47.7448058 115.976381,47.7448058 C113.293121,47.7448058 111.034926,49.3905036 111.034926,53.051741 L111.034926,67.5597122 L106.233689,67.5597122 L106.233689,43.7543309 L110.941774,43.7543309 L110.941774,46.1514532 C112.59007,44.3648633 114.89386,43.473036 117.295704,43.473036 C119.740693,43.473036 121.763066,44.270446 123.176521,45.6324029 C125.013572,47.417036 125.576405,49.6693525 125.576405,52.3492374 L125.576405,67.5597122 L120.775167,67.5597122" id="Fill-8" sketch:type="MSShapeGroup"></path>
            </g>
        </g>
    </g>
</svg>
